<svg xmlns="http://www.w3.org/2000/svg" viewBox="0 0 400 400"><defs><style>.cls-1{fill:#4ba6f7;}.cls-2{fill:#ceb682;}.cls-3{fill:#40342e;}.cls-4{fill:#514338;}.cls-5{fill:#40342d;}.cls-6{fill:#9a8763;}.cls-7{fill:#3f322c;}.cls-8{fill:#9b8864;}.cls-9{fill:#998565;}.cls-10{fill:#9a8665;}.cls-11{fill:#9d8a65;}.cls-12{fill:#a6916c;}.cls-13{fill:#f1f0ef;}</style></defs><title>osmo_OtterArtboard 1</title><g id="background"><circle class="cls-1" cx="196.64" cy="198.53" r="169.51"/></g><g id="otter"><path class="cls-2" d="M306.36,165.38c1.2,3,2.44,6.07,3.59,9.12,1,2.53,2,3.13,4.52,1.28,6.22-4.6,12.68-4.14,19.53.05-6.78,2.41-12.88,5.1-14.49,13.94,7.79-5.82,15.7-5.46,23.94-3.77-.72,1.78-2.39,1.82-3.57,2.5-8.47,4.89-12.91,12.22-12.92,21.93,0,18.35-7,34.12-18.48,47.77a192.67,192.67,0,0,1-81.91,57.92c-23.82,8.78-47.87,6.9-70.82-3.84-25.15-11.78-48.11-26.94-67.08-47.49-11.51-12.48-20-26.65-22.5-43.83a44.46,44.46,0,0,1-.54-7.55c.35-12.72-5.22-21.62-16.82-26.72,5.75-3.07,14.09-2.21,23.49,2.47-.3-5.66-1.83-7.22-13.51-13.63,5.76-3.5,11.54-4.14,17.39-.8,2,1.16,3.09,1,3.95-1.21,1.16-3,3.2-5.73,3.6-9.08,5.92,1.83,6.41,1.66,8.33-4.14,1-2.89,2.37-5.22,5.59-5.63a41.24,41.24,0,0,1,6.67-.15c5.07.23,5.69-.68,3.9-5.55s-5.58-8.69-8.65-12.84c5.07-9.35,12.68-16.38,21-22.7a86,86,0,0,1,34.56-16c6.11-1.28,10.24-4.81,14.48-8.71,8-7.34,16.84-13.11,28.44-15.61-3.35,4.8-7.59,7.94-9.94,12.52-.16.21-.49.53-.45.61.35.53.67.2,1-.11,8.25-2.46,16.22-5.93,24.85-7,7.23-.9,14.47-1.22,22.82.84C228.72,83.2,221.87,85.52,216,90a62.54,62.54,0,0,1,31.91,4.07l-12.3,3.18c3.95,1.47,6.65,2.43,9.31,3.46,18.29,7.11,32.91,18.94,44.49,34.67.61.83,1.29,1.62,1.94,2.44-2.72,3.49-5.62,6.87-7.2,11.11-1.89,5.09-1.31,5.86,4.2,5.54,8.33-.48,9.61.17,12.52,7.86C301.94,165.22,303.8,165.67,306.36,165.38Zm-17.78,75.15-.48-.36.38.47a1.87,1.87,0,0,0,1.82.88l.42.38-.37-.43A1.84,1.84,0,0,0,288.58,240.53Zm-130.7-27a3.73,3.73,0,0,0-4.93-1.46l4.93,2.48a40.38,40.38,0,0,1,14,13.43,56.67,56.67,0,0,1,4.66,9.6c.39,1,.95,2.12,2.19,1.76,1.51-.45,1.35-1.68.83-2.92C175.22,226.09,168.64,217.86,157.88,213.57Zm122.53,23.5c1.66,1.55,3.71,2,6.4,2.47-1.49-2.52-3.34-2.61-5.23-2.6-4.19-3.35-9.43-3.33-14.29-4-7.71-1.1-15.45-.67-22.56,3.19-1.23.68-3.13,1.48-2.27,3.25,1.09,2.25,2.41.35,3.59-.31a31.62,31.62,0,0,1,14-3.89A85.63,85.63,0,0,1,280.41,237.07ZM114.92,222.74c-4,.44-7.74,1.51-10.89,4.31l10.9-2.65c5.63-1.55,11.14-.34,16.65.72,9.93,1.92,18.76,6.28,26.93,12.12.92.65,1.75,2,3,.75,1.47-1.5-.13-2.37-1-3.24a10.79,10.79,0,0,0-2.17-1.54C145,225,130.86,220.16,114.92,222.74Zm166.45,1.88a7.86,7.86,0,0,0,5.5,1.4,10.4,10.4,0,0,0-5.51-2.39c-18.17-4.5-34.16,1-49.24,10.71-1,.68-2.25,1.52-1.45,2.8.92,1.48,2.34.79,3.48,0C248.29,226.92,263.82,222,281.37,224.62Zm2.67-8.14c-18.7-4.16-36.29-1.68-52.54,8.79a63.15,63.15,0,0,0-12,10.58c-.77.83-2.07,1.7-.88,3,1.46,1.57,2.35,0,3.26-.88,1.1-1,2.1-2.11,3.13-3.18a60.14,60.14,0,0,1,30.72-17.08c9.41-2.13,18.89-1.4,28.36-.29,2.94,1.08,5.83,2.43,10,2.46C290.41,217.65,287.16,217.26,284,216.48Zm-37.73-21.27c2.69,7.6,14.4,13.82,24.76,12.85-6-2-11.95-3.18-15.56-8.51a13.7,13.7,0,0,0,11.48-12c1.05-7-1.75-13.86-7-16.62-3.88-2-7.75-1.84-11.25,1-7.89,6.44-8.91,13.83-3.08,22.08C245.87,194.43,246.08,194.83,246.31,195.21Zm-103.66,3.32c3.2-3.32,6.26-6.72,7.89-11.17.53-1.45,1.23-3,.4-4.27-2.17-3.34-3.37-7.26-6.39-10.11-4.36-4.11-10-4.54-14.36-.48-4.78,4.42-6.09,10.07-4.55,16.31,1.48,6,5.07,10,11.5,10.81-4.23,4.74-9.86,6.92-15.86,8.52a12.47,12.47,0,0,0,4.06.2C132.3,207.2,138.93,205.42,142.65,198.53Zm63.61,27.78q7.14-7.6,14.27-15.23c6.57-6.06,6.65-6.82,2.12-14.13-3.36-5.43-6.9-10.75-9.89-16.41-3.46-6.54-9.49-9.47-16.57-9.52s-13.12,3-16.6,9.45c-3.13,5.77-6.75,11.2-10.18,16.76-4.42,7.18-4.5,7.19,1.55,13.05l14.75,15.94c1.77,2,3.42,4.13,5.35,6,3.15,3,2.78,6.81,1.2,9.84-5,9.62-19.75,16.5-30.54,14.67-4.09-.69-7.77-2.43-9.56-6.49-1-2.22-1.81-4.45-4.68-3.24-2.65,1.12-2.14,3.52-1.55,5.79,2.28,8.62,13.17,14.75,23.59,13.49,11.41-1.38,19.86-7.35,26.29-16.54,1.74.88,2.39,2.46,3.46,3.67,8.56,9.67,18.91,14.73,32.1,12.21,8.34-1.6,15.16-8.31,15.21-14.79,0-1.9-.13-3.67-2.48-4.06-2-.33-3,.71-3.66,2.47-1.85,5.17-6.05,7.09-11,7.64-12.08,1.32-20.8-4.66-28.16-13.33-3.19-3.76-3-8.28.3-11.88C203.14,229.88,204.69,228.09,206.26,226.31Zm-10.54,63.52c.74,0,1.49.06,2.23,0,7.07-.6,12.63-4,16.92-9.49,1.21-1.55,2.06-3.6.59-5.33-1.63-1.93-3.47-.77-5.11.4-.49.34-1,.65-1.48,1-8.2,5.74-16.49,6-24.89.43-1-.65-2-1.3-3-1.88-1.45-.83-2.88-1.59-4.33.14s-.7,3.15.31,4.45C181.72,285.63,187.62,289.76,195.72,289.83ZM219.7,167c-6.4-9.42-16.73-13.88-28.42-12.18a24.44,24.44,0,0,0-17.71,11.36C188.81,159.68,203.9,160.23,219.7,167ZM113.3,216.41c3.12,0,6.24.07,9.35,0a57.33,57.33,0,0,1,29.95,7.25c6.52,3.64,12.51,8,17.22,13.89.79,1,1.6,2.65,3.16,1.59,1.87-1.28.15-2.6-.46-3.82a4.14,4.14,0,0,0-.88-1C155.33,218,135.8,212.06,113.3,216.41Zm-4.69,21.68c3.56-.8,7.09-1.94,10.7-2.33,9.47-1,19-1.78,27.5,4,1.11.75,2.21,1.25,3.12,0,1.25-1.7-.38-2.24-1.43-3C140.34,230.74,118.61,231.2,108.61,238.09ZM232.38,215c-4,.61-6.44,3.48-9.07,5.9-4.49,4.15-8.27,8.91-10.25,14.84-.45,1.35-1.5,3.11.64,3.69,1.64.45,2-1.2,2.38-2.56a25.76,25.76,0,0,1,1.84-4.53C221.39,225.48,226.47,220,232.38,215ZM97.62,220.56l11-2.75C104.44,216.53,101,218.5,97.62,220.56Zm194.61,7.77c-1.35-1.34-2.32-2.23-4.65-1.63C289.12,227.75,290,228.88,292.23,228.33ZM151.05,210.65c-.06-.09-.1-.25-.18-.28s-.25,0-.37,0l.24.44Zm-2.76-1.06c-.11,0-.23-.13-.33-.11-.39.1-.41.29,0,.46a.44.44,0,0,0,.34-.07C148.31,209.83,148.28,209.69,148.29,209.59Zm147.69,11c0-.1,0-.25-.08-.29a1.05,1.05,0,0,0-.36-.08l.1.5Zm2.66.89c0-.09,0-.24-.07-.28a1,1,0,0,0-.35-.07l.1.48Z"/><path class="cls-3" d="M306.36,165.38c-2.56.29-4.42-.16-5.52-3.06-2.91-7.69-4.19-8.34-12.52-7.86-5.51.32-6.09-.45-4.2-5.54,1.58-4.24,4.48-7.62,7.2-11.11,3.23-2.61,6.32-5.42,10.34-6.88,4.31-1.56,8.15-1,11.61,2.11a23.46,23.46,0,0,1,6.65,9.91c2.53,7.4.56,13.61-5.87,18C311.6,162.56,308.93,163.9,306.36,165.38Z"/><path class="cls-3" d="M99.57,136.13c3.07,4.15,6.8,7.84,8.65,12.84s1.17,5.78-3.9,5.55a41.24,41.24,0,0,0-6.67.15c-3.22.41-4.63,2.74-5.59,5.63-1.92,5.8-2.41,6-8.33,4.14-5.22-3.36-11-6.06-12.19-13.27s4.26-17.72,10.93-20.4c3.43-1.38,6.8-.73,9.92.91C94.88,133,97.18,134.63,99.57,136.13Z"/><path class="cls-4" d="M171,210.28c-6.05-5.86-6-5.87-1.55-13.05,3.43-5.56,7.05-11,10.18-16.76,3.48-6.42,9.49-9.5,16.6-9.45s13.11,3,16.57,9.52c3,5.66,6.53,11,9.89,16.41,4.53,7.31,4.45,8.07-2.12,14.13-1.54-2-3-4-4.62-5.92-3.38-3.93-9.13-4.16-11.44-.36a23,23,0,0,0-3.55,12.2c.05,3.89.92,7.74,5.34,9.31-1.57,1.78-3.12,3.57-4.72,5.32-3.28,3.6-3.49,8.12-.3,11.88,7.36,8.67,16.08,14.65,28.16,13.33,5-.55,9.19-2.47,11-7.64.63-1.76,1.7-2.8,3.66-2.47,2.35.39,2.5,2.16,2.48,4.06-.05,6.48-6.87,13.19-15.21,14.79-13.19,2.52-23.54-2.54-32.1-12.21-1.07-1.21-1.72-2.79-3.46-3.67-6.43,9.19-14.88,15.16-26.29,16.54-10.42,1.26-21.31-4.87-23.59-13.49-.59-2.27-1.1-4.67,1.55-5.79,2.87-1.21,3.71,1,4.68,3.24,1.79,4.06,5.47,5.8,9.56,6.49,10.79,1.83,25.53-5.05,30.54-14.67,1.58-3,2-6.83-1.2-9.84-1.93-1.83-3.58-4-5.35-6,2.66-1,4.84-2.74,5.13-5.65.46-4.73.54-9.51-2-13.87-1.29-2.19-2.46-4.82-5.47-4.49s-6.37.73-7.86,4.11A7.23,7.23,0,0,1,171,210.28Z"/><path class="cls-5" d="M137.14,199.62c-6.43-.84-10-4.79-11.5-10.81-1.54-6.24-.23-11.89,4.55-16.31,4.37-4.06,10-3.63,14.36.48,3,2.85,4.22,6.77,6.39,10.11.83,1.28.13,2.82-.4,4.27-1.63,4.45-4.69,7.85-7.89,11.17Zm.6-20.7c0-2.14-1.08-3.34-2.91-3.4a2.75,2.75,0,0,0-3.08,3c-.06,2,.87,3.07,2.84,3.17A2.81,2.81,0,0,0,137.74,178.92Z"/><path class="cls-5" d="M246.31,195.21c-.23-.38-.44-.78-.69-1.14-5.83-8.25-4.81-15.64,3.08-22.08,3.5-2.86,7.37-3.05,11.25-1,5.29,2.76,8.09,9.61,7,16.62a13.7,13.7,0,0,1-11.48,12C251.52,200.06,249.24,196.93,246.31,195.21Zm9.56-16.6c-.2-2-1.33-3.11-3.14-3.09s-2.86,1.24-2.85,3.18a2.64,2.64,0,0,0,3,3C254.89,181.65,255.65,180.33,255.87,178.61Z"/><path class="cls-6" d="M195.72,289.83c-8.1-.07-14-4.2-18.78-10.3-1-1.3-1.7-2.8-.31-4.45s2.88-1,4.33-.14c1,.58,2,1.23,3,1.88,8.4,5.54,16.69,5.31,24.89-.43.48-.34,1-.65,1.48-1,1.64-1.17,3.48-2.33,5.11-.4,1.47,1.73.62,3.78-.59,5.33-4.29,5.51-9.85,8.89-16.92,9.49C197.21,289.89,196.46,289.83,195.72,289.83Z"/><path class="cls-7" d="M206.26,226.31c-4.42-1.57-5.29-5.42-5.34-9.31a23,23,0,0,1,3.55-12.2c2.31-3.8,8.06-3.57,11.44.36,1.63,1.9,3.08,4,4.62,5.92Q213.39,218.7,206.26,226.31Z"/><path class="cls-7" d="M171,210.28a7.23,7.23,0,0,0,4.53-4c1.49-3.38,4.83-3.78,7.86-4.11s4.18,2.3,5.47,4.49c2.56,4.36,2.48,9.14,2,13.87-.29,2.91-2.47,4.63-5.13,5.65Z"/><path class="cls-8" d="M219.7,167c-15.8-6.77-30.89-7.32-46.13-.82a24.44,24.44,0,0,1,17.71-11.36C203,153.12,213.3,157.58,219.7,167Z"/><path class="cls-9" d="M284.06,217.4c-9.47-1.11-18.95-1.84-28.36.29A60.14,60.14,0,0,0,225,234.77c-1,1.07-2,2.18-3.13,3.18-.91.84-1.8,2.45-3.26.88-1.19-1.28.11-2.15.88-3a63.15,63.15,0,0,1,12-10.58c16.25-10.47,33.84-13,52.54-8.8C284.05,216.78,284.05,217.09,284.06,217.4Z"/><path class="cls-9" d="M113.3,216.41c22.5-4.35,42,1.61,58.34,17.89a4.14,4.14,0,0,1,.88,1c.61,1.22,2.33,2.54.46,3.82-1.56,1.06-2.37-.61-3.16-1.59-4.71-5.91-10.7-10.25-17.22-13.89a57.33,57.33,0,0,0-29.95-7.25C119.54,216.48,116.42,216.41,113.3,216.41Z"/><path class="cls-10" d="M281.37,224.62c-17.55-2.67-33.08,2.3-47.22,12.5-1.14.81-2.56,1.5-3.48,0-.8-1.28.41-2.12,1.45-2.8,15.08-9.73,31.07-15.21,49.24-10.71C281.36,224,281.36,224.29,281.37,224.62Z"/><path class="cls-9" d="M114.92,222.74c15.94-2.58,30.09,2.27,43.43,10.47a10.79,10.79,0,0,1,2.17,1.54c.86.87,2.46,1.74,1,3.24-1.25,1.26-2.08-.1-3-.75-8.17-5.84-17-10.2-26.93-12.12-5.51-1.06-11-2.27-16.65-.72C114.93,223.85,114.92,223.29,114.92,222.74Z"/><path class="cls-10" d="M108.61,238.09c10-6.89,31.73-7.35,39.89-1.33,1.05.78,2.68,1.32,1.43,3-.91,1.23-2,.73-3.12,0-8.5-5.78-18-5-27.5-4C115.7,236.15,112.17,237.29,108.61,238.09Z"/><path class="cls-10" d="M280.41,237.07a85.63,85.63,0,0,0-20.33-1.9,31.62,31.62,0,0,0-14,3.89c-1.18.66-2.5,2.56-3.59.31-.86-1.77,1-2.57,2.27-3.25,7.11-3.86,14.85-4.29,22.56-3.19,4.86.68,10.1.66,14.28,4Z"/><path class="cls-9" d="M157.88,213.57c10.76,4.29,17.34,12.52,21.69,22.89.52,1.24.68,2.47-.83,2.92-1.24.36-1.8-.75-2.19-1.76a56.67,56.67,0,0,0-4.66-9.6,40.38,40.38,0,0,0-14-13.43Z"/><path class="cls-9" d="M232.38,215c-5.91,5-11,10.47-14.46,17.34a25.76,25.76,0,0,0-1.84,4.53c-.39,1.36-.74,3-2.38,2.56-2.14-.58-1.09-2.34-.64-3.69,2-5.93,5.76-10.69,10.25-14.84C225.94,218.49,228.42,215.62,232.38,215Z"/><path class="cls-8" d="M246.31,195.21c2.93,1.72,5.21,4.85,9.2,4.34,3.61,5.33,9.56,6.54,15.56,8.51C260.71,209,249,202.81,246.31,195.21Z"/><path class="cls-11" d="M137.14,199.62l5.51-1.09c-3.72,6.89-10.35,8.67-17.31,9.81a12.47,12.47,0,0,1-4.06-.2C127.28,206.54,132.91,204.36,137.14,199.62Z"/><path class="cls-12" d="M114.92,222.74c0,.55,0,1.11,0,1.66L104,227.05C107.18,224.25,110.93,223.18,114.92,222.74Z"/><path class="cls-12" d="M97.62,220.56c3.4-2.06,6.82-4,11-2.75Z"/><path class="cls-12" d="M284.06,217.4c0-.31,0-.62,0-.93,3.12.79,6.37,1.18,10,3.39C289.89,219.83,287,218.48,284.06,217.4Z"/><path class="cls-12" d="M280.41,237.07l1.16-.13c1.9,0,3.75.08,5.24,2.6C284.12,239,282.07,238.62,280.41,237.07Z"/><path class="cls-12" d="M157.88,213.57v1L153,212.11A3.73,3.73,0,0,1,157.88,213.57Z"/><path class="cls-12" d="M281.37,224.62c0-.33,0-.66,0-1a10.4,10.4,0,0,1,5.51,2.39A7.86,7.86,0,0,1,281.37,224.62Z"/><path class="cls-12" d="M292.23,228.33c-2.25.55-3.11-.58-4.65-1.63C289.91,226.1,290.88,227,292.23,228.33Z"/><path class="cls-12" d="M151.05,210.65l-.31.2-.24-.44c.12,0,.27-.08.37,0S151,210.56,151.05,210.65Z"/><path class="cls-12" d="M148.29,209.59c0,.1,0,.24,0,.28a.44.44,0,0,1-.34.07c-.37-.17-.35-.36,0-.46C148.06,209.46,148.18,209.55,148.29,209.59Z"/><path class="cls-12" d="M290.3,241.52a1.87,1.87,0,0,1-1.82-.88l.11-.11a1.83,1.83,0,0,1,1.76.94Z"/><path class="cls-12" d="M296,220.57l-.34.13-.1-.5a1.05,1.05,0,0,1,.36.08C296,220.32,296,220.47,296,220.57Z"/><path class="cls-12" d="M298.64,221.46l-.32.13-.1-.48a1,1,0,0,1,.35.07C298.63,221.22,298.62,221.37,298.64,221.46Z"/><path class="cls-12" d="M290.35,241.47l.37.43-.42-.38Z"/><path class="cls-12" d="M288.48,240.64l-.38-.47.48.36Z"/><path class="cls-13" d="M137.74,178.92a2.81,2.81,0,0,1-3.15,2.73c-2-.1-2.9-1.22-2.84-3.17a2.75,2.75,0,0,1,3.08-3C136.66,175.58,137.74,176.78,137.74,178.92Z"/><path class="cls-13" d="M255.87,178.61c-.22,1.72-1,3-3,3a2.64,2.64,0,0,1-3-3c0-1.94,1-3.16,2.85-3.18S255.67,176.65,255.87,178.61Z"/></g></svg>